<svg width="21" height="20" viewBox="0 0 21 20" fill="none" xmlns="http://www.w3.org/2000/svg">
<g id="vuesax/outline/add-circle">
<g id="add-circle">
<path id="Vector" d="M10.5724 18.6343C5.71979 18.6343 1.77551 14.69 1.77551 9.83741C1.77551 4.9848 5.71979 1.04053 10.5724 1.04053C15.425 1.04053 19.3693 4.9848 19.3693 9.83741C19.3693 14.69 15.425 18.6343 10.5724 18.6343ZM10.5724 2.268C6.39899 2.268 3.00298 5.664 3.00298 9.83741C3.00298 14.0108 6.39899 17.4068 10.5724 17.4068C14.7458 17.4068 18.1418 14.0108 18.1418 9.83741C18.1418 5.664 14.7458 2.268 10.5724 2.268Z" fill="#EBEBEB"/>
<path id="Vector_2" d="M13.8457 10.4511H7.29916C6.96365 10.4511 6.68542 10.1729 6.68542 9.83737C6.68542 9.50186 6.96365 9.22363 7.29916 9.22363H13.8457C14.1812 9.22363 14.4594 9.50186 14.4594 9.83737C14.4594 10.1729 14.1812 10.4511 13.8457 10.4511Z" fill="#EBEBEB"/>
<path id="Vector_3" d="M10.5724 13.7242C10.2368 13.7242 9.95862 13.446 9.95862 13.1104V6.56393C9.95862 6.22842 10.2368 5.9502 10.5724 5.9502C10.9079 5.9502 11.1861 6.22842 11.1861 6.56393V13.1104C11.1861 13.446 10.9079 13.7242 10.5724 13.7242Z" fill="#EBEBEB"/>
</g>
</g>
</svg>
