<svg width="19" height="18" viewBox="0 0 19 18" fill="none" xmlns="http://www.w3.org/2000/svg">
<g id="arrow-left">
<g id="vuesax/outline/arrow-left">
<g id="arrow-left_2">
<path id="Vector" d="M8.00125 13C7.87567 13 7.7501 12.9487 7.65095 12.8387L3.63906 8.38772C3.44739 8.17507 3.44739 7.8231 3.63906 7.61045L7.65095 3.15949C7.84263 2.94684 8.15988 2.94684 8.35155 3.15949C8.54322 3.37214 8.54322 3.72411 8.35155 3.93676L4.68995 7.99908L8.35155 12.0614C8.54322 12.2741 8.54322 12.626 8.35155 12.8387C8.25902 12.9487 8.12683 13 8.00125 13Z" fill="black"/>
<path id="Vector_2" d="M17.9225 9H5.06814C4.75499 9 4.4953 8.77333 4.4953 8.5C4.4953 8.22667 4.75499 8 5.06814 8H17.9225C18.2356 8 18.4953 8.22667 18.4953 8.5C18.4953 8.77333 18.2356 9 17.9225 9Z" fill="black"/>
</g>
</g>
</g>
</svg>
