<svg width="14" height="15" viewBox="0 0 14 15" fill="none" xmlns="http://www.w3.org/2000/svg">
<g id="arrow-left">
<g id="vuesax/outline/arrow-left">
<g id="arrow-left_2">
<path id="Vector" d="M5.72256 11.4314C5.61552 11.4314 5.50847 11.392 5.42397 11.3074L2.00425 7.88773C1.84087 7.72435 1.84087 7.45393 2.00425 7.29054L5.42397 3.87083C5.58735 3.70745 5.85777 3.70745 6.02115 3.87083C6.18453 4.03421 6.18453 4.30463 6.02115 4.46801L2.90002 7.58914L6.02115 10.7103C6.18453 10.8736 6.18453 11.1441 6.02115 11.3074C5.94228 11.392 5.8296 11.4314 5.72256 11.4314Z" fill="#328BCD"/>
<path id="Vector_2" d="M11.8803 8.01182H2.39861C2.16762 8.01182 1.97607 7.82027 1.97607 7.58928C1.97607 7.3583 2.16762 7.16675 2.39861 7.16675H11.8803C12.1113 7.16675 12.3028 7.3583 12.3028 7.58928C12.3028 7.82027 12.1113 8.01182 11.8803 8.01182Z" fill="#328BCD"/>
</g>
</g>
</g>
</svg>
