<svg width="20" height="13" viewBox="0 0 20 13" fill="none" xmlns="http://www.w3.org/2000/svg">
<g id="arrow-left">
<g id="vuesax/outline/arrow-left">
<g id="arrow-left_2">
<path id="Vector" d="M17.8999 7.22014H2.16693C1.78366 7.22014 1.46582 6.98475 1.46582 6.70089C1.46582 6.41703 1.78366 6.18164 2.16693 6.18164H17.8999C18.2832 6.18164 18.6011 6.41703 18.6011 6.70089C18.6011 6.98475 18.2832 7.22014 17.8999 7.22014Z" fill="white"/>
</g>
</g>
<path id="Vector_2" d="M4.85981 10.2414C4.76115 10.2414 4.66249 10.2051 4.58461 10.1272L1.43276 6.97534C1.28218 6.82476 1.28218 6.57552 1.43276 6.42494L4.58461 3.27309C4.73519 3.12251 4.98443 3.12251 5.13501 3.27309C5.28559 3.42368 5.28559 3.67292 5.13501 3.8235L2.25837 6.70014L5.13501 9.57679C5.28559 9.72737 5.28559 9.97661 5.13501 10.1272C5.06232 10.2051 4.95847 10.2414 4.85981 10.2414Z" fill="white"/>
</g>
</svg>
