<svg width="14" height="15" viewBox="0 0 14 15" fill="none" xmlns="http://www.w3.org/2000/svg">
<g id="arrow-left">
<g id="vuesax/outline/arrow-left">
<g id="arrow-left_2">
<path id="Vector" d="M8.19767 11.4314C8.30471 11.4314 8.41175 11.392 8.49626 11.3074L11.916 7.88773C12.0794 7.72435 12.0794 7.45393 11.916 7.29054L8.49626 3.87083C8.33288 3.70745 8.06246 3.70745 7.89908 3.87083C7.7357 4.03421 7.7357 4.30463 7.89908 4.46801L11.0202 7.58914L7.89908 10.7103C7.7357 10.8736 7.7357 11.1441 7.89908 11.3074C7.97795 11.392 8.09063 11.4314 8.19767 11.4314Z" fill="#328BCD"/>
<path id="Vector_2" d="M2.0399 8.01182H11.5216C11.7526 8.01182 11.9441 7.82027 11.9441 7.58928C11.9441 7.3583 11.7526 7.16675 11.5216 7.16675H2.0399C1.80891 7.16675 1.61736 7.3583 1.61736 7.58928C1.61736 7.82027 1.80891 8.01182 2.0399 8.01182Z" fill="#328BCD"/>
</g>
</g>
</g>
</svg>
