<svg width="13" height="13" viewBox="0 0 13 13" fill="none" xmlns="http://www.w3.org/2000/svg">
<g id="vuesax/outline/back-square">
<g id="back-square">
<path id="Vector" d="M8.05936 12.0093H4.94386C2.12434 12.0093 0.919678 10.8047 0.919678 7.98514V4.86964C0.919678 2.05012 2.12434 0.845459 4.94386 0.845459H8.05936C10.8789 0.845459 12.0835 2.05012 12.0835 4.86964V7.98514C12.0835 10.8047 10.8789 12.0093 8.05936 12.0093ZM4.94386 1.62433C2.55012 1.62433 1.69855 2.4759 1.69855 4.86964V7.98514C1.69855 10.3789 2.55012 11.2305 4.94386 11.2305H8.05936C10.4531 11.2305 11.3047 10.3789 11.3047 7.98514V4.86964C11.3047 2.4759 10.4531 1.62433 8.05936 1.62433H4.94386Z" fill="#328BCD"/>
<path id="Vector_2" d="M7.49851 8.57169H4.9438C4.73091 8.57169 4.55436 8.39514 4.55436 8.18225C4.55436 7.96936 4.73091 7.79281 4.9438 7.79281H7.49851C8.16315 7.79281 8.70836 7.2528 8.70836 6.58297C8.70836 5.91313 8.16834 5.37311 7.49851 5.37311H3.98319C3.77029 5.37311 3.59375 5.19657 3.59375 4.98368C3.59375 4.77078 3.77029 4.59424 3.98319 4.59424H7.49851C8.59412 4.59424 9.48723 5.48735 9.48723 6.58297C9.48723 7.67858 8.59412 8.57169 7.49851 8.57169Z" fill="#328BCD"/>
<path id="Vector_3" d="M4.72045 6.17804C4.62179 6.17804 4.52314 6.1417 4.44525 6.06381L3.63003 5.24859C3.47944 5.098 3.47944 4.84876 3.63003 4.69818L4.44525 3.88296C4.59583 3.73237 4.84507 3.73237 4.99565 3.88296C5.14623 4.03354 5.14623 4.28278 4.99565 4.43336L4.45563 4.97338L4.99565 5.5134C5.14623 5.66398 5.14623 5.91323 4.99565 6.06381C4.92296 6.1365 4.8243 6.17804 4.72045 6.17804Z" fill="#328BCD"/>
</g>
</g>
</svg>
