<svg width="13" height="13" viewBox="0 0 13 13" fill="none" xmlns="http://www.w3.org/2000/svg">
<g id="vuesax/outline/calendar">
<g id="calendar">
<path id="Vector" d="M4.36649 3.02046C4.1536 3.02046 3.97705 2.84392 3.97705 2.63102V1.07328C3.97705 0.860383 4.1536 0.683838 4.36649 0.683838C4.57938 0.683838 4.75593 0.860383 4.75593 1.07328V2.63102C4.75593 2.84392 4.57938 3.02046 4.36649 3.02046Z" fill="#000D16"/>
<path id="Vector_2" d="M8.5203 3.02046C8.3074 3.02046 8.13086 2.84392 8.13086 2.63102V1.07328C8.13086 0.860383 8.3074 0.683838 8.5203 0.683838C8.73319 0.683838 8.90973 0.860383 8.90973 1.07328V2.63102C8.90973 2.84392 8.73319 3.02046 8.5203 3.02046Z" fill="#000D16"/>
<path id="Vector_3" d="M4.62618 7.56394C4.55868 7.56394 4.49118 7.54837 4.42887 7.52241C4.36137 7.49644 4.30944 7.46008 4.25752 7.41335C4.16405 7.31469 4.10693 7.18489 4.10693 7.04469C4.10693 6.97719 4.12251 6.90968 4.14847 6.84737C4.17444 6.78506 4.21078 6.72795 4.25752 6.67603C4.30944 6.62929 4.36137 6.59294 4.42887 6.56697C4.6158 6.48909 4.84946 6.53064 4.99485 6.67603C5.08832 6.77468 5.14543 6.90968 5.14543 7.04469C5.14543 7.07584 5.14024 7.1122 5.13505 7.14855C5.12986 7.1797 5.11947 7.21085 5.10389 7.24201C5.09351 7.27316 5.07793 7.30431 5.05716 7.33547C5.04158 7.36143 5.01562 7.38739 4.99485 7.41335C4.89619 7.50682 4.76119 7.56394 4.62618 7.56394Z" fill="#000D16"/>
<path id="Vector_4" d="M6.44357 7.56381C6.37606 7.56381 6.30856 7.54823 6.24625 7.52227C6.17875 7.49631 6.12682 7.45995 6.0749 7.41322C5.98143 7.31456 5.92432 7.18475 5.92432 7.04456C5.92432 6.97705 5.93989 6.90955 5.96586 6.84724C5.99182 6.78493 6.02817 6.72782 6.0749 6.67589C6.12682 6.62916 6.17875 6.5928 6.24625 6.56684C6.43318 6.48376 6.66684 6.5305 6.81223 6.67589C6.9057 6.77455 6.96282 6.90955 6.96282 7.04456C6.96282 7.07571 6.95762 7.11206 6.95243 7.14841C6.94724 7.17957 6.93685 7.21072 6.92127 7.24187C6.91089 7.27303 6.89531 7.30418 6.87454 7.33533C6.85897 7.3613 6.833 7.38726 6.81223 7.41322C6.71358 7.50668 6.57857 7.56381 6.44357 7.56381Z" fill="#000D16"/>
<path id="Vector_5" d="M8.26095 7.56381C8.19345 7.56381 8.12594 7.54823 8.06363 7.52227C7.99613 7.49631 7.94421 7.45995 7.89228 7.41322C7.87151 7.38726 7.85074 7.3613 7.82997 7.33533C7.8092 7.30418 7.79363 7.27303 7.78324 7.24187C7.76766 7.21072 7.75728 7.17957 7.75208 7.14841C7.74689 7.11206 7.7417 7.07571 7.7417 7.04456C7.7417 6.90955 7.79882 6.77455 7.89228 6.67589C7.94421 6.62916 7.99613 6.5928 8.06363 6.56684C8.25576 6.48376 8.48423 6.5305 8.62962 6.67589C8.72308 6.77455 8.7802 6.90955 8.7802 7.04456C8.7802 7.07571 8.77501 7.11206 8.76981 7.14841C8.76462 7.17957 8.75424 7.21072 8.73866 7.24187C8.72827 7.27303 8.7127 7.30418 8.69193 7.33533C8.67635 7.3613 8.65039 7.38726 8.62962 7.41322C8.53096 7.50668 8.39595 7.56381 8.26095 7.56381Z" fill="#000D16"/>
<path id="Vector_6" d="M4.62618 9.38113C4.55868 9.38113 4.49118 9.36556 4.42887 9.33959C4.36656 9.31363 4.30944 9.27727 4.25752 9.23054C4.16405 9.13188 4.10693 8.99688 4.10693 8.86188C4.10693 8.79437 4.12251 8.72687 4.14847 8.66456C4.17444 8.59706 4.21078 8.53995 4.25752 8.49321C4.44964 8.30109 4.80273 8.30109 4.99485 8.49321C5.08832 8.59187 5.14543 8.72687 5.14543 8.86188C5.14543 8.99688 5.08832 9.13188 4.99485 9.23054C4.89619 9.324 4.76119 9.38113 4.62618 9.38113Z" fill="#000D16"/>
<path id="Vector_7" d="M6.44357 9.38113C6.30856 9.38113 6.17356 9.324 6.0749 9.23054C5.98143 9.13188 5.92432 8.99688 5.92432 8.86188C5.92432 8.79437 5.93989 8.72687 5.96586 8.66456C5.99182 8.59706 6.02817 8.53995 6.0749 8.49321C6.26702 8.30109 6.62011 8.30109 6.81223 8.49321C6.85897 8.53995 6.89531 8.59706 6.92127 8.66456C6.94724 8.72687 6.96282 8.79437 6.96282 8.86188C6.96282 8.99688 6.9057 9.13188 6.81223 9.23054C6.71358 9.324 6.57857 9.38113 6.44357 9.38113Z" fill="#000D16"/>
<path id="Vector_8" d="M8.26095 9.381C8.12594 9.381 7.99094 9.32388 7.89228 9.23042C7.84555 9.18368 7.8092 9.12657 7.78324 9.05907C7.75728 8.99676 7.7417 8.92926 7.7417 8.86175C7.7417 8.79425 7.75728 8.72675 7.78324 8.66444C7.8092 8.59693 7.84555 8.53982 7.89228 8.49309C8.01171 8.37366 8.19345 8.31653 8.35961 8.35288C8.39595 8.35807 8.42711 8.36846 8.45826 8.38404C8.48942 8.39442 8.52057 8.41001 8.55173 8.43078C8.57769 8.44636 8.60365 8.47232 8.62962 8.49309C8.72308 8.59175 8.7802 8.72675 8.7802 8.86175C8.7802 8.99676 8.72308 9.13176 8.62962 9.23042C8.53096 9.32388 8.39595 9.381 8.26095 9.381Z" fill="#000D16"/>
<path id="Vector_9" d="M10.8568 5.14411H2.02957C1.81668 5.14411 1.64014 4.96756 1.64014 4.75467C1.64014 4.54178 1.81668 4.36523 2.02957 4.36523H10.8568C11.0697 4.36523 11.2463 4.54178 11.2463 4.75467C11.2463 4.96756 11.0697 5.14411 10.8568 5.14411Z" fill="#000D16"/>
<path id="Vector_10" d="M8.52054 11.8476H4.36655C2.47128 11.8476 1.38086 10.7572 1.38086 8.86196V4.44833C1.38086 2.55307 2.47128 1.46265 4.36655 1.46265H8.52054C10.4158 1.46265 11.5062 2.55307 11.5062 4.44833V8.86196C11.5062 10.7572 10.4158 11.8476 8.52054 11.8476ZM4.36655 2.24152C2.88149 2.24152 2.15973 2.96328 2.15973 4.44833V8.86196C2.15973 10.347 2.88149 11.0688 4.36655 11.0688H8.52054C10.0056 11.0688 10.7274 10.347 10.7274 8.86196V4.44833C10.7274 2.96328 10.0056 2.24152 8.52054 2.24152H4.36655Z" fill="#000D16"/>
</g>
</g>
</svg>
