<svg width="17" height="17" viewBox="0 0 17 17" fill="none" xmlns="http://www.w3.org/2000/svg">
<g id="Checkbox Circle">
<g id="Group">
<path id="Vector" d="M15 8C15 9.85651 14.2625 11.637 12.9497 12.9497C11.637 14.2625 9.85651 15 8 15C7.08075 15 6.17049 14.8189 5.32122 14.4672C4.47194 14.1154 3.70026 13.5998 3.05025 12.9497C1.7375 11.637 1 9.85651 1 8C1 6.14348 1.7375 4.36301 3.05025 3.05025C4.36301 1.7375 6.14348 1 8 1C9.85651 1 11.637 1.7375 12.9497 3.05025C14.2625 4.36301 15 6.14348 15 8Z" fill="#48CD32" fill-opacity="0.2" stroke="#48CD32" stroke-width="1.37586" stroke-miterlimit="10" stroke-linecap="square"/>
<g id="Vector_2">
<path d="M5 8.65374L6.22903 9.89605C6.26301 9.93054 6.30418 9.95762 6.34982 9.9755C6.39545 9.99338 6.44449 10.0016 6.49368 9.99973C6.54287 9.99783 6.59107 9.9858 6.63508 9.96445C6.67909 9.9431 6.7179 9.91292 6.74893 9.87591L10 6" fill="#48CD32" fill-opacity="0.2"/>
<path d="M5 8.65374L6.22903 9.89605C6.26301 9.93054 6.30418 9.95762 6.34982 9.9755C6.39545 9.99338 6.44449 10.0016 6.49368 9.99973C6.54287 9.99783 6.59107 9.9858 6.63508 9.96445C6.67909 9.9431 6.7179 9.91292 6.74893 9.87591L10 6" stroke="#48CD32" stroke-width="1.37586" stroke-miterlimit="10" stroke-linecap="square"/>
</g>
</g>
</g>
</svg>
