<svg width="21" height="20" viewBox="0 0 21 20" fill="none" xmlns="http://www.w3.org/2000/svg">
<g id="vuesax/outline/add-circle">
<g id="add-circle">
<path id="Vector" d="M10.7085 18.9584C5.76679 18.9584 1.75012 14.9417 1.75012 10.0001C1.75012 5.05841 5.76679 1.04175 10.7085 1.04175C15.6501 1.04175 19.6668 5.05841 19.6668 10.0001C19.6668 14.9417 15.6501 18.9584 10.7085 18.9584ZM10.7085 2.29175C6.45846 2.29175 3.00012 5.75008 3.00012 10.0001C3.00012 14.2501 6.45846 17.7084 10.7085 17.7084C14.9585 17.7084 18.4168 14.2501 18.4168 10.0001C18.4168 5.75008 14.9585 2.29175 10.7085 2.29175Z" fill="#328BCD"/>
<path id="Vector_2" d="M14.0418 10.625H7.37514C7.03347 10.625 6.75014 10.3417 6.75014 10C6.75014 9.65833 7.03347 9.375 7.37514 9.375H14.0418C14.3835 9.375 14.6668 9.65833 14.6668 10C14.6668 10.3417 14.3835 10.625 14.0418 10.625Z" fill="#328BCD"/>
<path id="Vector_3" d="M10.7085 13.9584C10.3668 13.9584 10.0835 13.6751 10.0835 13.3334V6.66675C10.0835 6.32508 10.3668 6.04175 10.7085 6.04175C11.0501 6.04175 11.3335 6.32508 11.3335 6.66675V13.3334C11.3335 13.6751 11.0501 13.9584 10.7085 13.9584Z" fill="#328BCD"/>
</g>
</g>
</svg>
