<svg width="16" height="16" viewBox="0 0 16 16" fill="none" xmlns="http://www.w3.org/2000/svg">
<g id="close">
<circle id="Ellipse 5" cx="8" cy="8" r="7.42857" fill="#CD3232" fill-opacity="0.3" stroke="#CD3232" stroke-width="1.14286"/>
<g id="Layer 2">
<path id="close_2" d="M8.80571 8L11.2629 5.54857C11.3705 5.44097 11.4309 5.29503 11.4309 5.14286C11.4309 4.99069 11.3705 4.84475 11.2629 4.73714C11.1553 4.62954 11.0093 4.56909 10.8571 4.56909C10.705 4.56909 10.559 4.62954 10.4514 4.73714L8 7.19429L5.54857 4.73714C5.44097 4.62954 5.29503 4.56909 5.14286 4.56909C4.99068 4.56909 4.84474 4.62954 4.73714 4.73714C4.62954 4.84475 4.56909 4.99069 4.56909 5.14286C4.56909 5.29503 4.62954 5.44097 4.73714 5.54857L7.19429 8L4.73714 10.4514C4.68358 10.5046 4.64107 10.5678 4.61206 10.6374C4.58305 10.707 4.56812 10.7817 4.56812 10.8571C4.56812 10.9326 4.58305 11.0073 4.61206 11.0769C4.64107 11.1465 4.68358 11.2097 4.73714 11.2629C4.79026 11.3164 4.85347 11.3589 4.9231 11.3879C4.99273 11.4169 5.06742 11.4319 5.14286 11.4319C5.21829 11.4319 5.29298 11.4169 5.36262 11.3879C5.43225 11.3589 5.49545 11.3164 5.54857 11.2629L8 8.80572L10.4514 11.2629C10.5046 11.3164 10.5678 11.3589 10.6374 11.3879C10.707 11.4169 10.7817 11.4319 10.8571 11.4319C10.9326 11.4319 11.0073 11.4169 11.0769 11.3879C11.1465 11.3589 11.2097 11.3164 11.2629 11.2629C11.3164 11.2097 11.3589 11.1465 11.3879 11.0769C11.4169 11.0073 11.4319 10.9326 11.4319 10.8571C11.4319 10.7817 11.4169 10.707 11.3879 10.6374C11.3589 10.5678 11.3164 10.5046 11.2629 10.4514L8.80571 8Z" fill="#CD3232"/>
</g>
</g>
</svg>
