<svg width="18" height="19" viewBox="0 0 18 19" fill="none" xmlns="http://www.w3.org/2000/svg">
<g id="doctor (2) 1" clip-path="url(#clip0_911_11678)">
<g id="Group">
<path id="Vector" d="M7.76953 0.688475C6.63398 0.846678 5.71992 1.29668 4.91836 2.09472C4.48945 2.5166 4.23633 2.88223 4.09219 3.27949L3.99375 3.55371L3.97969 5.12871C3.97266 6.44355 3.97969 6.75644 4.02539 7.02363C4.13086 7.63887 4.37695 8.24355 4.74609 8.79551C4.98867 9.15762 5.56523 9.73066 5.93437 9.97324L6.22266 10.1631L6.21562 10.8275L6.20508 11.492L4.51758 11.8682C2.7 12.276 2.48555 12.3393 2.01445 12.6486C1.53281 12.9615 1.14961 13.3799 0.878906 13.8826C0.720703 14.1744 -0.5625 17.9643 -0.5625 18.1365C-0.5625 18.3932 -0.298828 18.6533 -0.0351562 18.6533C0.137109 18.6533 0.341016 18.5303 0.414844 18.3791C0.453516 18.3088 0.762891 17.4088 1.10391 16.3822C1.73672 14.4803 1.81055 14.301 2.09883 13.9494C2.26055 13.7525 2.59102 13.5064 2.86523 13.3764C3.07617 13.2779 3.91992 13.0564 3.95508 13.0916C3.96562 13.1021 3.97266 13.626 3.97266 14.2588V15.4084L3.74062 15.5244C3.28711 15.7459 2.92852 16.2416 2.84766 16.7514C2.67539 17.8729 3.7125 18.8502 4.82344 18.6146C5.49141 18.4705 6.02227 17.8975 6.1207 17.2119C6.21562 16.5404 5.83945 15.8197 5.24531 15.5385L5.03086 15.4365V14.1357L5.02734 12.835L5.74805 12.6732C6.2543 12.5607 6.4793 12.5256 6.50039 12.5502C6.51797 12.5713 6.85898 13.1338 7.25977 13.8018C7.66055 14.4697 8.02617 15.0568 8.07891 15.1131C8.25469 15.2959 8.59219 15.3064 8.77852 15.1307C8.82773 15.0885 9.20742 14.4803 9.62227 13.7842C10.0406 13.0881 10.3852 12.515 10.3852 12.515C10.3887 12.5115 10.7156 12.5818 11.1199 12.6697L11.8477 12.8314V13.5592V14.2834L11.6895 14.3291C11.2148 14.4627 10.6523 14.9443 10.4098 15.426C10.1883 15.8654 10.1531 16.1186 10.1672 17.3139C10.1777 18.242 10.1812 18.3018 10.2516 18.3932C10.4133 18.6111 10.4801 18.6357 10.9441 18.6463C11.3027 18.6533 11.3941 18.6463 11.4961 18.5936C11.9391 18.365 11.8371 17.69 11.3484 17.6092L11.2078 17.5881L11.2219 16.8814C11.2324 16.1889 11.2359 16.1713 11.3344 15.9568C11.4469 15.7143 11.6473 15.5033 11.8898 15.3803C12.1148 15.2643 12.5402 15.2467 12.8004 15.3451C13.0781 15.4506 13.2961 15.6545 13.4367 15.9393L13.5527 16.1748L13.5668 16.8814L13.5773 17.5881L13.4402 17.6092C12.948 17.69 12.8461 18.365 13.2891 18.5936C13.391 18.6463 13.4824 18.6533 13.841 18.6463C14.3051 18.6357 14.3754 18.6111 14.5336 18.3932C14.6039 18.3018 14.6074 18.2525 14.6074 17.2014C14.6074 16.2627 14.5969 16.0729 14.5441 15.8795C14.3543 15.1869 13.8023 14.5857 13.1379 14.3467L12.9199 14.2658L12.9094 13.6928C12.9059 13.3799 12.9129 13.1092 12.927 13.0951C12.9691 13.0564 13.8445 13.2885 14.0449 13.3869C14.3016 13.5205 14.6285 13.7701 14.7762 13.9494C15.0645 14.3045 15.1383 14.4768 15.7887 16.435C16.1402 17.4896 16.4531 18.3896 16.4812 18.4354C16.548 18.5408 16.773 18.6533 16.9102 18.6533C17.1738 18.6533 17.4375 18.3932 17.4375 18.1365C17.4375 18.0064 16.1754 14.2307 16.0488 13.9775C15.6551 13.1971 14.9625 12.5818 14.1504 12.2936C14.0344 12.2514 13.2047 12.0545 12.3047 11.8541L10.6699 11.492L10.6629 10.8275L10.6523 10.1631L10.9441 9.96973C11.3062 9.73066 11.8828 9.15762 12.1254 8.79902C12.491 8.25058 12.7441 7.63535 12.8496 7.02363C12.8953 6.75644 12.9023 6.44355 12.8953 5.12871L12.8812 3.55371L12.7828 3.27949C12.6387 2.88223 12.3855 2.5166 11.9566 2.09121C11.25 1.3916 10.459 0.962694 9.48516 0.755272C9.10898 0.674412 8.13867 0.639256 7.76953 0.688475ZM9.08437 1.76074C9.52031 1.82754 10.0371 1.9998 10.3852 2.20019C10.9617 2.53066 11.5242 3.07207 11.7352 3.50097C11.8266 3.6873 11.8301 3.72246 11.8406 4.32715L11.8547 4.95644L11.4152 4.53105C10.8246 3.95449 10.8035 3.95098 10.1742 4.22168C10.0125 4.29199 9.72422 4.39043 9.53789 4.43965C9.21445 4.52754 9.14414 4.53457 8.4375 4.53457C7.73086 4.53457 7.66055 4.52754 7.33711 4.43965C7.15078 4.39043 6.8625 4.29199 6.70078 4.22168C6.06797 3.95098 6.04688 3.95449 5.45977 4.53105L5.02734 4.95293V4.3834C5.02734 3.57832 5.1082 3.37441 5.65664 2.83301C6.54258 1.9541 7.78359 1.56387 9.08437 1.76074ZM6.64453 5.3291C7.28086 5.54707 7.56914 5.58926 8.41992 5.59277C9.28477 5.59277 9.48867 5.56465 10.1883 5.34316L10.582 5.2166L10.9336 5.5541C11.2184 5.8248 11.3414 5.91621 11.5699 6.02168L11.8547 6.15527L11.8371 6.52441C11.7738 7.8709 10.8035 9.10488 9.47461 9.52324C8.26523 9.90293 6.96445 9.59707 6.06445 8.72168C5.43867 8.10996 5.07656 7.34004 5.03789 6.52441L5.02031 6.15527L5.30508 6.02168C5.53711 5.91621 5.65664 5.8248 5.93437 5.55762C6.1207 5.3748 6.28945 5.22715 6.30703 5.22363C6.32461 5.22363 6.47578 5.27285 6.64453 5.3291ZM7.56563 10.6623C7.75195 10.7045 7.9875 10.7186 8.4375 10.7186C8.8875 10.7186 9.12305 10.7045 9.30937 10.6623C9.45 10.6307 9.57305 10.6025 9.58359 10.6025C9.59062 10.6025 9.59766 10.8662 9.59766 11.1896V11.7768L9.02812 12.7365C8.71172 13.2639 8.44805 13.6928 8.4375 13.6928C8.42695 13.6928 8.16328 13.2639 7.85039 12.7365L7.27734 11.7768V11.1896C7.27734 10.8662 7.28437 10.6025 7.29141 10.6025C7.30195 10.6025 7.425 10.6307 7.56563 10.6623ZM4.74258 16.4561C5.18906 16.6846 5.18906 17.3033 4.74258 17.5283C4.57383 17.6162 4.41914 17.6162 4.23281 17.5318C3.78633 17.3279 3.76523 16.7338 4.19766 16.4701C4.33125 16.3893 4.60195 16.3822 4.74258 16.4561Z" fill="white"/>
</g>
</g>
<defs>
<clipPath id="clip0_911_11678">
<rect width="18" height="18" fill="white" transform="translate(0 0.5)"/>
</clipPath>
</defs>
</svg>
