<svg width="12" height="12" viewBox="0 0 12 12" fill="none" xmlns="http://www.w3.org/2000/svg">
<g id="vuesax/outline/edit-2">
<g id="edit-2">
<path id="Vector" d="M2.81649 9.90612C2.53124 9.90612 2.26471 9.80792 2.07299 9.62555C1.82983 9.39642 1.71293 9.05039 1.75501 8.67631L1.92803 7.16125C1.96076 6.87601 2.13378 6.49725 2.33485 6.2915L6.17391 2.22799C7.13251 1.21328 8.13319 1.18522 9.1479 2.14382C10.1626 3.10241 10.1907 4.1031 9.23207 5.11781L5.39301 9.18132C5.19661 9.39175 4.83188 9.58814 4.54664 9.6349L3.04094 9.89209C2.96144 9.89676 2.8913 9.90612 2.81649 9.90612ZM7.67494 2.13914C7.31488 2.13914 7.00158 2.36359 6.68361 2.70027L2.84454 6.76846C2.75102 6.86666 2.64347 7.10047 2.62477 7.23607L2.45175 8.75112C2.43305 8.90543 2.47046 9.03169 2.55462 9.11118C2.63879 9.19067 2.76505 9.21873 2.91936 9.19535L4.42506 8.93817C4.56066 8.91479 4.78512 8.79321 4.87864 8.69501L8.7177 4.63149C9.29754 4.01425 9.50796 3.44377 8.66159 2.64883C8.2875 2.28877 7.96485 2.13914 7.67494 2.13914Z" fill="#596065"/>
<path id="Vector_2" d="M8.33428 5.89874C8.32493 5.89874 8.3109 5.89874 8.30154 5.89874C6.84261 5.75378 5.66891 4.64555 5.44446 3.19597C5.4164 3.00425 5.54733 2.82656 5.73905 2.79382C5.93077 2.76577 6.10846 2.8967 6.14119 3.08842C6.31889 4.22003 7.2354 5.08978 8.37636 5.20201C8.56808 5.22071 8.70836 5.39373 8.68966 5.58544C8.66628 5.76314 8.51197 5.89874 8.33428 5.89874Z" fill="#596065"/>
<path id="Vector_3" d="M10.0457 11.4163H1.62878C1.43706 11.4163 1.27808 11.2573 1.27808 11.0656C1.27808 10.8738 1.43706 10.7148 1.62878 10.7148H10.0457C10.2375 10.7148 10.3964 10.8738 10.3964 11.0656C10.3964 11.2573 10.2375 11.4163 10.0457 11.4163Z" fill="#596065"/>
</g>
</g>
</svg>
