<svg width="10" height="5" viewBox="0 0 10 5" fill="none" xmlns="http://www.w3.org/2000/svg">
<g id="eye-laser-surgery 1" clip-path="url(#clip0_963_70)">
<path id="Vector" d="M0.510556 2.53475C0.512528 2.54463 0.517176 2.55354 0.52126 2.56286C0.524077 2.56913 0.5245 2.57595 0.528443 2.58193C0.529288 2.58332 0.530697 2.5843 0.531401 2.58555C0.533232 2.5882 0.535485 2.59028 0.537457 2.59279C0.546612 2.60434 0.557176 2.61422 0.569007 2.62216C0.570838 2.62327 0.571683 2.62508 0.573373 2.62619L4.07253 4.78361C4.09577 4.79795 4.12154 4.80463 4.14689 4.80463C4.19394 4.80463 4.23985 4.78138 4.26661 4.73907C4.30774 4.67379 4.2876 4.58805 4.22168 4.54727L3.99154 4.40544C4.23492 4.19777 4.43422 3.94765 4.58112 3.67066C4.58492 3.66537 4.58746 3.65939 4.59042 3.65354C4.66225 3.51588 4.72098 3.37182 4.76591 3.22303C4.76647 3.22081 4.76788 3.21914 4.76816 3.21677C4.76816 3.21635 4.76802 3.21593 4.76816 3.21552C4.82309 3.03179 4.85732 2.84138 4.8683 2.64763H5.57675C5.65464 2.64763 5.7176 2.58527 5.7176 2.50844C5.7176 2.43161 5.65464 2.36925 5.57675 2.36925H4.8683C4.85732 2.17509 4.82309 1.9844 4.76788 1.80053C4.76788 1.79997 4.76816 1.79956 4.76802 1.799C4.76774 1.79677 4.76619 1.79524 4.76591 1.79315C4.71957 1.64046 4.65844 1.49265 4.58408 1.35151C4.58196 1.34831 4.58098 1.34441 4.57858 1.34149C4.43182 1.06617 4.23351 0.817724 3.99154 0.611169L4.22182 0.469197C4.28788 0.428554 4.30788 0.342675 4.26675 0.277396C4.22563 0.212256 4.13901 0.192352 4.07267 0.232995L3.6783 0.476435C3.67689 0.47727 3.67563 0.478105 3.67422 0.47894L0.573514 2.39013C0.572246 2.39083 0.571683 2.39208 0.570556 2.39278C0.562809 2.39779 0.556894 2.40516 0.550274 2.41171C0.543514 2.41825 0.536049 2.42409 0.530978 2.43189C0.530274 2.433 0.529007 2.43356 0.528302 2.43467C0.5245 2.44066 0.523936 2.44748 0.521119 2.45374C0.517035 2.46307 0.512246 2.47197 0.510415 2.48186C0.508584 2.49076 0.509429 2.49939 0.509429 2.5083C0.509429 2.51721 0.508866 2.52598 0.510556 2.53475ZM4.44506 1.72412C4.11816 1.84201 3.88703 2.15379 3.88703 2.5083C3.88703 2.86281 4.11816 3.17473 4.4452 3.29263C4.42887 3.33577 4.41084 3.37809 4.39182 3.41998C4.00746 3.28066 3.74619 2.92197 3.74619 2.5083C3.74619 2.09477 4.00732 1.73623 4.39154 1.59676C4.4107 1.63865 4.42858 1.68111 4.44506 1.72412ZM4.58633 2.64707C4.57802 2.77554 4.55872 2.9022 4.52858 3.02594C4.31732 2.94396 4.16873 2.74019 4.16873 2.5083C4.16873 2.27641 4.31732 2.07278 4.52844 1.9908C4.55872 2.11482 4.57816 2.2419 4.58633 2.37065C4.5107 2.37315 4.44999 2.4337 4.44999 2.509C4.44999 2.58402 4.5107 2.64457 4.58633 2.64707ZM4.25788 1.34692C3.78309 1.53524 3.4645 1.98927 3.4645 2.5083C3.4645 3.02733 3.78323 3.4815 4.25816 3.66969C4.12211 3.88974 3.94774 4.08697 3.74013 4.25066L0.914218 2.5083L3.74013 0.766363C3.9476 0.930049 4.12196 1.12714 4.25788 1.34692ZM5.93675 2.77234L6.42225 3.01258V3.06575C6.42225 3.14272 6.4852 3.20494 6.56309 3.20494H9.38013C9.45802 3.20494 9.52098 3.14272 9.52098 3.06575V1.95225C9.52098 1.87541 9.45802 1.81306 9.38013 1.81306H6.56309C6.4852 1.81306 6.42225 1.87541 6.42225 1.95225V2.00555L5.93675 2.24565C5.88901 2.26918 5.85887 2.31748 5.85887 2.37009V2.64777C5.85887 2.70052 5.88901 2.74868 5.93675 2.77234ZM9.23929 2.09129V2.92642H6.70394V2.09129H9.23929ZM6.14056 2.45597L6.42225 2.31664V2.70108L6.14056 2.56189V2.45597ZM8.39337 3.4829H7.12577C7.04788 3.4829 6.98492 3.54511 6.98492 3.62208C6.98492 3.69906 7.04788 3.76127 7.12577 3.76127H8.39337C8.47126 3.76127 8.53422 3.69906 8.53422 3.62208C8.53422 3.54511 8.47126 3.4829 8.39337 3.4829ZM7.12577 1.53426H8.39337C8.47126 1.53426 8.53422 1.47191 8.53422 1.39508C8.53422 1.31824 8.47126 1.25589 8.39337 1.25589H7.12577C7.04788 1.25589 6.98492 1.31824 6.98492 1.39508C6.98492 1.47191 7.04788 1.53426 7.12577 1.53426ZM7.68957 0.977512H8.95718C9.03506 0.977512 9.09802 0.915155 9.09802 0.838324C9.09802 0.761492 9.03506 0.699136 8.95718 0.699136H7.68957C7.61168 0.699136 7.54873 0.761492 7.54873 0.838324C7.54873 0.915155 7.61168 0.977512 7.68957 0.977512ZM7.54887 4.17884C7.54887 4.25581 7.61182 4.31803 7.68971 4.31803H8.95732C9.0352 4.31803 9.09816 4.25581 9.09816 4.17884C9.09816 4.10187 9.0352 4.03965 8.95732 4.03965H7.68971C7.61182 4.03965 7.54887 4.10187 7.54887 4.17884Z" fill="#3254CD"/>
</g>
<defs>
<clipPath id="clip0_963_70">
<rect width="9.01408" height="4.73239" fill="white" transform="translate(0.507034 0.142334)"/>
</clipPath>
</defs>
</svg>
