<svg width="39" height="41" viewBox="0 0 39 41" fill="none" xmlns="http://www.w3.org/2000/svg">
<g id="Group">
<path id="Vector" d="M35.6206 31.6121C37.3898 28.7119 38.4095 25.3042 38.4095 21.6584C38.4095 11.0872 29.8399 2.51758 19.2687 2.51758C8.69754 2.51758 0.12793 11.0872 0.12793 21.6584C0.12793 25.3042 1.14762 28.7118 2.91684 31.6121H35.6206Z" fill="#FC90CE"/>
<path id="Vector_2" d="M14.6343 21.7714C14.6343 21.7714 17.339 20.3572 19.2161 20.3572C21.0931 20.3572 23.9034 21.7714 23.9034 21.7714V24.2959H14.6343V21.7714Z" fill="#FFB332"/>
<path id="Vector_3" d="M23.6059 23.9366C22.9645 23.4327 22.5487 22.8566 22.5487 22.2088C22.5487 21.7456 22.5487 21.8843 22.5487 21.5845C21.7412 22.3064 20.3563 23.2262 19.2158 23.2538C19.177 23.2529 19.1379 23.2507 19.0987 23.2478C19.0949 23.302 18.8919 25.9588 17.2858 27.5931C17.0913 27.6199 16.2907 27.7596 15.5776 28.3113C16.0426 28.5541 16.5219 28.7785 17.0162 28.982C18.494 29.5902 20.1886 29.5903 21.6661 28.982C22.5451 28.6201 23.3791 28.1946 24.1644 27.7119C24.0438 25.9642 23.7992 24.7073 23.6059 23.9366Z" fill="#FFAA7B"/>
<path id="Vector_4" d="M15.8829 22.2088C15.8829 22.8135 15.5203 23.3558 14.9504 23.8352C14.9482 23.8594 14.9445 23.8839 14.9381 23.9088C14.747 24.6642 14.5032 25.901 14.3789 27.6235C14.8013 27.8892 15.2382 28.138 15.6887 28.3692C16.4687 27.7843 17.3404 27.7044 17.3404 27.7044C19.0324 26.0124 19.2157 23.2538 19.2157 23.2538C18.0752 23.2263 16.6903 22.3064 15.8828 21.5845C15.8829 21.9004 15.8829 21.7116 15.8829 22.2088Z" fill="#FC9460"/>
<path id="Vector_5" d="M21.5742 28.7646C20.1535 29.3494 18.5242 29.3494 17.1032 28.7646C16.1446 28.3699 15.2415 27.8967 14.4 27.353C14.1636 30.248 14.2599 34.6024 15.5859 40.4437C16.7778 40.676 18.0087 40.799 19.2686 40.7991H19.2693C20.5292 40.7991 21.7601 40.676 22.952 40.4437C24.2649 34.6601 24.3722 30.3345 24.1447 27.4397C23.341 27.9471 22.4821 28.3908 21.5742 28.7646Z" fill="#D3DCFB"/>
<path id="Vector_6" d="M18.2194 28.1225C17.8348 27.9661 17.4887 27.794 17.1765 27.6106C16.6745 27.7014 15.0792 28.1173 14.5464 29.7893C14.4852 29.7754 14.4008 29.7586 14.2994 29.7432C14.2965 30.2579 14.3048 30.8021 14.3269 31.3765C15.2907 32.1547 16.7298 31.9598 17.4351 30.914L18.5584 29.2483C18.8268 28.8504 18.6641 28.3032 18.2194 28.1225Z" fill="#DEEEFF"/>
<path id="Vector_7" d="M17.3406 27.7042C15.8461 26.8772 15.0965 25.795 14.7209 24.9048C14.5074 26.0401 14.3035 27.6898 14.2988 29.8595C14.5018 29.8926 14.6264 29.9301 14.6264 29.9301C15.1989 27.8984 17.3406 27.7042 17.3406 27.7042Z" fill="#D3DCFB"/>
<path id="Vector_8" d="M23.8168 24.9048C23.3737 25.9549 22.4108 27.272 20.3183 28.1225C19.8736 28.3032 19.711 28.8504 19.9794 29.2483L21.1027 30.914C21.808 31.9599 23.2472 32.1548 24.2109 31.3764C24.3242 28.4447 24.0775 26.2913 23.8168 24.9048Z" fill="#DEEEFF"/>
<path id="Vector_9" d="M25.9058 39.6164C29.9747 38.112 33.3923 35.2646 35.6206 31.612C35.4501 30.9421 35.2429 30.3465 34.9937 29.848C33.9768 27.8144 32.3461 26.6736 31.2612 26.2373C30.7453 26.0298 30.2388 25.8016 29.7463 25.5434C29.0319 25.1689 27.9884 24.6645 26.9199 24.2959C27.4307 25.0724 27.4549 26.773 27.4008 27.7389C27.1236 32.7039 26.4792 36.9834 25.9058 39.6164Z" fill="#FFC839"/>
<path id="Vector_10" d="M11.1376 31.4895C10.9496 31.4807 10.4962 31.4713 9.94668 31.5463C9.28559 31.6365 8.35895 31.8716 7.69824 32.4797C7.13316 32.9999 6.84668 33.7061 6.84668 34.5789V36.2197C8.54441 37.6692 10.4982 38.8276 12.6315 39.6164C12.1865 37.573 11.6989 34.5377 11.3731 30.9602C11.2845 31.1174 11.205 31.2928 11.1376 31.4895Z" fill="#FFC839"/>
<path id="Vector_11" d="M11.1367 27.7389C11.0827 26.773 11.1069 25.0724 11.6177 24.2959C10.5492 24.6644 9.50574 25.1689 8.79129 25.5434C8.29879 25.8015 7.79238 26.0298 7.27644 26.2373C6.19152 26.6737 4.56074 27.8144 3.54395 29.848C3.29473 30.3465 3.08746 30.9421 2.91699 31.612C4.00371 33.3935 5.37402 34.9826 6.96418 36.3186C6.96418 35.7906 6.96418 35.2095 6.96418 34.5789C6.96418 31.2586 11.221 31.612 11.221 31.612C11.2711 31.4531 11.329 31.3079 11.3932 31.1748C11.2907 30.0775 11.2031 28.9281 11.1367 27.7389Z" fill="#FFB332"/>
<path id="Vector_12" d="M25.3806 22.364C25.2912 22.3165 22.7487 21.2449 22.7406 21.2415C22.7406 21.2415 23.2091 21.9787 23.4153 22.9308C23.922 25.5544 24.5085 32.1798 22.6157 40.5069C23.8074 40.2968 24.9605 39.9754 26.0651 39.5558C26.5996 37.0012 27.469 31.7387 27.7557 26.6081C27.8539 24.8516 26.9339 23.1899 25.3806 22.364Z" fill="#FFDD40"/>
<path id="Vector_13" d="M14.5461 29.7893C14.0379 29.6748 11.9739 29.3496 11.1904 31.3491C11.5765 34.7509 12.1037 37.7959 12.4718 39.5557C13.5765 39.9755 14.7296 40.2967 15.9212 40.5069C14.9749 36.3434 14.6483 32.6052 14.6217 29.5801C14.5949 29.6478 14.5692 29.717 14.5461 29.7893Z" fill="#FFDD40"/>
<path id="Vector_14" d="M10.7816 26.6081C10.8758 28.2956 11.0333 29.9967 11.2211 31.6117C12.0015 29.14 14.6265 29.93 14.6265 29.93L14.6265 29.9298C14.5747 26.7331 14.859 24.2926 15.122 22.9308C15.3282 21.9787 15.7966 21.2415 15.7966 21.2415C15.7886 21.2448 13.2461 22.3165 13.1567 22.364C11.6034 23.1899 10.6834 24.8516 10.7816 26.6081Z" fill="#FFC839"/>
<path id="Vector_15" d="M32.4431 7.77344C31.551 8.81961 30.892 10.2984 31.4041 12.2366C33.0968 18.6427 29.2395 21.5844 32.3416 23.8567C34.3154 25.3027 36.1801 26.2593 37.3632 27.9135C38.0409 25.9533 38.4095 23.8489 38.4095 21.6583C38.4095 16.192 36.1178 11.2613 32.4431 7.77344Z" fill="#FFBBE5"/>
<path id="Vector_16" d="M6.09426 7.77344C6.98629 8.81961 7.64535 10.2984 7.13324 12.2366C5.44051 18.6427 9.29785 21.5844 6.19574 23.8567C4.22191 25.3027 2.35715 26.2593 1.1741 27.9135C0.496445 25.9533 0.12793 23.8489 0.12793 21.6583C0.127852 16.192 2.41957 11.2613 6.09426 7.77344Z" fill="#FFBBE5"/>
<path id="Vector_17" d="M33.7448 34.1804C33.3351 32.7375 32.4205 31.8881 31.6734 31.4158C31.1851 31.107 30.5483 31.4545 30.5483 32.0323V37.1229C31.7222 36.2653 32.7949 35.2776 33.7448 34.1804Z" fill="#FFB332"/>
<path id="Vector_18" d="M9.81925 18.6574C9.92628 19.062 10.2031 19.396 10.5719 19.561C10.5857 19.5672 10.5995 19.5733 10.6133 19.5794C12.6792 20.4979 14.9214 20.9525 17.1822 20.9525H21.3553C23.616 20.9525 25.8582 20.4979 27.924 19.5795C27.9378 19.5733 27.9517 19.5672 27.9655 19.561C28.3343 19.396 28.6111 19.0619 28.7182 18.6573C29.0015 17.5865 29.1491 16.5211 29.2076 15.438C29.5378 9.34529 27.2492 5.41029 24.9065 2.92646C23.4564 1.38911 21.6487 0.295599 19.837 1.03654C19.4726 1.18552 19.0647 1.18552 18.7003 1.03654C16.8887 0.295677 15.0809 1.38919 13.631 2.92646C11.2882 5.41029 8.99972 9.34529 9.32972 15.438C9.38878 16.5231 9.53526 17.5844 9.81925 18.6574Z" fill="#945230"/>
<path id="Vector_19" d="M13.631 2.9265C11.2882 5.41032 8.99972 9.34532 9.32972 15.4381C9.38878 16.5231 9.53526 17.5844 9.81917 18.6574C9.9262 19.062 10.203 19.3959 10.5718 19.561C10.5857 19.5672 10.5994 19.5734 10.6132 19.5795C12.6791 20.4979 14.9213 20.9525 17.1821 20.9525H21.3552C23.616 20.9525 25.8581 20.4979 27.9239 19.5795L27.9654 19.561C28.3342 19.396 28.611 19.062 28.7181 18.6574C28.8699 18.0838 28.9817 17.5117 29.0627 16.9376C26.9896 17.425 26.6012 15.1444 26.6012 15.1444L16.5344 9.64454C14.7486 5.49673 18.7003 1.0365 18.7003 1.0365C16.8888 0.295636 15.0809 1.38915 13.631 2.9265Z" fill="#753616"/>
<path id="Vector_20" d="M12.8471 11.2017C12.7945 11.2106 12.7414 11.2193 12.6879 11.2275C11.5847 11.3972 10.9294 12.5496 11.3251 13.5932C11.3275 13.5995 11.3298 13.6056 11.3321 13.6118C11.4124 13.8252 11.4641 14.041 11.4876 14.2573C11.5385 14.7271 11.7932 15.4148 12.8495 15.3986C12.8335 15.3309 12.8171 15.2642 12.8016 15.1955C12.8016 15.1955 12.4106 12.7181 12.8471 11.2017Z" fill="#FC9460"/>
<path id="Vector_21" d="M25.6898 11.2017C26.1265 12.7181 25.7355 15.1955 25.7355 15.1955C25.7198 15.2643 25.7035 15.331 25.6875 15.3986C26.7438 15.4148 26.9985 14.7271 27.0494 14.2573C27.0727 14.041 27.1245 13.8252 27.2048 13.6118C27.2071 13.6056 27.2095 13.5995 27.2118 13.5932C27.6075 12.5496 26.9522 11.3972 25.849 11.2275C25.7955 11.2193 25.7425 11.2106 25.6898 11.2017Z" fill="#FFAA7B"/>
<path id="Vector_22" d="M16.5064 13.5259C16.734 15.5225 17.3617 18.3173 19.0596 20.2937C19.8672 21.2339 20.8472 21.9122 21.9867 22.3258C22.759 21.7351 23.4085 21.0076 23.9037 20.1667C24.7148 18.7894 25.3478 17.1208 25.7846 15.2071C25.9386 14.3193 26.085 12.4416 25.7397 11.2105C23.2116 10.7917 21.5667 9.47701 20.5604 8.28545C19.8837 7.48428 18.6531 7.48428 17.9764 8.28545C17.566 8.77146 17.0491 9.27803 16.4094 9.73584C16.3806 10.1362 16.2947 11.6679 16.5064 13.5259Z" fill="#FFC7AB"/>
<path id="Vector_23" d="M20.2979 23.3117C20.9534 23.0303 21.5556 22.6703 22.0955 22.2421C15.5708 19.9522 16.5346 9.64478 16.5346 9.64478H16.5345C15.5884 10.3488 14.3624 10.9514 12.7975 11.2106C12.4522 12.4418 12.5986 14.3195 12.7526 15.2073C13.1895 17.1209 13.8225 18.7895 14.6336 20.1669C15.457 21.5651 16.704 22.6526 18.2398 23.3119C18.5672 23.4524 18.9175 23.5252 19.2689 23.532C19.6202 23.525 19.9704 23.4523 20.2979 23.3117Z" fill="#FFAA7B"/>
</g>
</svg>
