<svg width="185" height="532" viewBox="0 0 185 532" fill="none" xmlns="http://www.w3.org/2000/svg">
<g clip-path="url(#clip0_377_1362)">
<path d="M-241.41 185.194C-241.41 185.194 -145.485 294.665 -174.193 387.398C-201.629 475.801 -102.113 584.3 -102.113 584.3" stroke="#EBEBEB" stroke-width="3.43994" stroke-miterlimit="10"/>
<path d="M-224.422 164.644C-224.422 164.644 -115.098 288.362 -147.249 393.047C-177.978 492.758 -64.6659 615.256 -64.6659 615.256" stroke="#EBEBEB" stroke-width="3.43994" stroke-miterlimit="10"/>
<path d="M-207.387 144.037C-207.387 144.037 -84.7213 281.955 -120.362 398.65C-154.317 509.819 -27.1617 646.259 -27.1617 646.259" stroke="#EBEBEB" stroke-width="3.43994" stroke-miterlimit="10"/>
<path d="M-190.399 123.486C-190.399 123.486 -54.3818 275.709 -93.4173 404.3C-130.666 526.776 10.3424 677.262 10.3424 677.262" stroke="#EBEBEB" stroke-width="3.43994" stroke-miterlimit="10"/>
<path d="M-173.411 102.936C-173.411 102.936 -23.995 269.406 -66.5773 409.959C-107.015 543.733 47.8465 708.266 47.8465 708.266" stroke="#EBEBEB" stroke-width="3.43994" stroke-miterlimit="10"/>
<path d="M-156.376 82.3289C-156.376 82.3289 6.38182 262.999 -39.5858 415.552C-83.4109 560.747 85.2935 739.221 85.2935 739.221" stroke="#EBEBEB" stroke-width="3.43994" stroke-miterlimit="10"/>
<path d="M-139.388 61.7788C-139.388 61.7788 36.7685 256.696 -12.6986 421.154C-59.7599 577.704 122.798 770.225 122.798 770.225" stroke="#EBEBEB" stroke-width="3.43994" stroke-miterlimit="10"/>
<path d="M-122.353 41.1715C-122.353 41.1715 67.1553 250.393 14.2457 426.804C-36.1089 594.66 160.302 801.228 160.302 801.228" stroke="#EBEBEB" stroke-width="3.43994" stroke-miterlimit="10"/>
<path d="M-105.365 20.6213C-105.365 20.6213 97.4849 244.043 41.1328 432.406C-12.5052 611.674 197.806 832.231 197.806 832.231" stroke="#EBEBEB" stroke-width="3.43994" stroke-miterlimit="10"/>
<path d="M-88.3767 0.0710445C-88.3767 0.0710445 127.872 237.74 68.03 438.113C11.1459 628.631 235.31 863.234 235.31 863.234" stroke="#EBEBEB" stroke-width="3.43994" stroke-miterlimit="10"/>
<path d="M-71.3416 -20.5362C-71.3416 -20.5362 158.258 231.437 95.0214 443.705C34.7968 645.588 272.757 894.19 272.757 894.19" stroke="#EBEBEB" stroke-width="3.43994" stroke-miterlimit="10"/>
<path d="M-54.3536 -41.0864C-54.3536 -41.0864 188.588 225.087 121.861 449.365C58.4006 662.602 310.261 925.193 310.261 925.193" stroke="#EBEBEB" stroke-width="3.43994" stroke-miterlimit="10"/>
<path d="M-37.3656 -61.6366C-37.3656 -61.6366 218.975 218.784 148.806 455.015C82.0516 679.558 347.765 956.196 347.765 956.196" stroke="#EBEBEB" stroke-width="3.43994" stroke-miterlimit="10"/>
<path d="M-20.3304 -82.2439C-20.3304 -82.2439 249.409 212.424 175.693 460.617C105.703 696.515 385.269 987.199 385.269 987.199" stroke="#EBEBEB" stroke-width="3.43994" stroke-miterlimit="10"/>
<path d="M-3.34238 -102.794C-3.34238 -102.794 279.691 206.131 202.637 466.267C129.306 713.529 422.716 1018.16 422.716 1018.16" stroke="#EBEBEB" stroke-width="3.43994" stroke-miterlimit="10"/>
<path d="M609.064 825.978C609.064 825.978 459.648 659.508 502.231 518.955C542.715 385.124 387.854 220.591 387.854 220.591" stroke="#EBEBEB" stroke-width="3.43994" stroke-miterlimit="10"/>
<path d="M592.076 846.528C592.076 846.528 429.319 665.858 475.286 513.305C519.111 368.11 350.35 189.588 350.35 189.588" stroke="#EBEBEB" stroke-width="3.43994" stroke-miterlimit="10"/>
<path d="M575.089 867.078C575.089 867.078 398.932 672.161 448.399 507.703C495.461 351.153 312.846 158.585 312.846 158.585" stroke="#EBEBEB" stroke-width="3.43994" stroke-miterlimit="10"/>
<path d="M558.053 887.685C558.053 887.685 368.545 678.464 421.455 502.053C471.809 334.197 275.399 127.629 275.399 127.629" stroke="#EBEBEB" stroke-width="3.43994" stroke-miterlimit="10"/>
<path d="M541.065 908.236C541.065 908.236 338.216 684.814 394.568 496.451C448.206 317.183 237.895 96.6262 237.895 96.6262" stroke="#EBEBEB" stroke-width="3.43994" stroke-miterlimit="10"/>
<path d="M524.077 928.786C524.077 928.786 307.829 691.117 367.671 490.744C424.555 300.226 200.391 65.6228 200.391 65.6228" stroke="#EBEBEB" stroke-width="3.43994" stroke-miterlimit="10"/>
<path d="M507.042 949.393C507.042 949.393 277.442 697.42 340.679 485.151C400.904 283.269 162.886 34.6198 162.886 34.6198" stroke="#EBEBEB" stroke-width="3.43994" stroke-miterlimit="10"/>
<path d="M490.054 969.943C490.054 969.943 247.112 703.77 313.839 479.492C377.3 266.255 125.382 3.61673 125.382 3.61673" stroke="#EBEBEB" stroke-width="3.43994" stroke-miterlimit="10"/>
<path d="M473.066 990.493C473.066 990.493 216.726 710.073 286.895 473.842C353.649 249.298 87.9352 -27.3393 87.9352 -27.3393" stroke="#EBEBEB" stroke-width="3.43994" stroke-miterlimit="10"/>
<path d="M456.031 1011.1C456.031 1011.1 186.292 716.433 260.008 468.24C329.941 232.294 50.4313 -58.3423 50.4313 -58.3423" stroke="#EBEBEB" stroke-width="3.43994" stroke-miterlimit="10"/>
<path d="M439.043 1031.65C439.043 1031.65 156.009 722.726 233.063 462.59C306.337 215.281 12.9272 -89.3454 12.9272 -89.3454" stroke="#EBEBEB" stroke-width="3.43994" stroke-miterlimit="10"/>
</g>
<defs>
<clipPath id="clip0_377_1362">
<rect width="1066.95" height="593.987" fill="white" transform="matrix(0.770745 0.637143 0.637143 -0.770745 -381.668 354.165)"/>
</clipPath>
</defs>
</svg>
