<svg width="51" height="26" viewBox="0 0 51 26" fill="none" xmlns="http://www.w3.org/2000/svg">
<path id="Vector 32" d="M16.9302 9.69772L17.8417 8.70342C17.3179 8.22326 16.5114 8.23182 15.9979 8.72299L16.9302 9.69772ZM33.1163 24.5349L32.2048 25.5292C32.4887 25.7894 32.8702 25.9159 33.2532 25.8768C33.6362 25.8377 33.9843 25.6368 34.2098 25.3247L33.1163 24.5349ZM50.6512 0.255859L36.4407 6.63109L49.067 15.7501L50.6512 0.255859ZM2.35096 25.5097L17.8626 10.6724L15.9979 8.72299L0.486263 23.5602L2.35096 25.5097ZM16.0188 10.692L32.2048 25.5292L34.0277 23.5406L17.8417 8.70342L16.0188 10.692ZM34.2098 25.3247L44.6371 10.8869L42.4501 9.3074L32.0228 23.7452L34.2098 25.3247Z" fill="#41C16D"/>
</svg>
