<svg width="20" height="20" viewBox="0 0 20 20" fill="none" xmlns="http://www.w3.org/2000/svg">
<g id="vuesax/outline/home-trend-up">
<g id="home-trend-up">
<path id="Vector" d="M14.825 18.9498H5.17502C2.89169 18.9498 1.04169 17.0915 1.04169 14.8082V8.63318C1.04169 7.49985 1.74169 6.07485 2.64169 5.37485L7.13335 1.87485C8.48335 0.824848 10.6417 0.774848 12.0417 1.75818L17.1917 5.36652C18.1834 6.05818 18.9584 7.54152 18.9584 8.74985V14.8165C18.9584 17.0915 17.1084 18.9498 14.825 18.9498ZM7.90002 2.85818L3.40835 6.35818C2.81669 6.82485 2.29169 7.88318 2.29169 8.63318V14.8082C2.29169 16.3998 3.58335 17.6998 5.17502 17.6998H14.825C16.4167 17.6998 17.7084 16.4082 17.7084 14.8165V8.74985C17.7084 7.94985 17.1334 6.84152 16.475 6.39152L11.325 2.78318C10.375 2.11651 8.80835 2.14985 7.90002 2.85818Z" fill="#EBEBEB"/>
<path id="Vector_2" d="M6.24999 14.375C6.09166 14.375 5.93333 14.3167 5.80833 14.1917C5.56666 13.95 5.56666 13.55 5.80833 13.3084L8.47499 10.6417C8.60833 10.5084 8.78333 10.4417 8.97499 10.4584C9.15833 10.475 9.32499 10.575 9.43333 10.7334L10.3417 12.1L13.3 9.1417C13.5417 8.90003 13.9417 8.90003 14.1833 9.1417C14.425 9.38337 14.425 9.78337 14.1833 10.025L10.6833 13.525C10.55 13.6584 10.375 13.725 10.1833 13.7084C9.99999 13.6917 9.83333 13.5917 9.72499 13.4334L8.81666 12.0667L6.69166 14.1917C6.56666 14.3167 6.40833 14.375 6.24999 14.375Z" fill="#EBEBEB"/>
<path id="Vector_3" d="M13.75 11.8749C13.4083 11.8749 13.125 11.5916 13.125 11.2499V10.2083H12.0833C11.7416 10.2083 11.4583 9.92492 11.4583 9.58325C11.4583 9.24159 11.7416 8.95825 12.0833 8.95825H13.75C14.0916 8.95825 14.375 9.24159 14.375 9.58325V11.2499C14.375 11.5916 14.0916 11.8749 13.75 11.8749Z" fill="#EBEBEB"/>
</g>
</g>
</svg>
