<svg width="39" height="41" viewBox="0 0 39 41" fill="none" xmlns="http://www.w3.org/2000/svg">
<g id="Group">
<path id="Vector" d="M36.0948 30.79C37.5708 28.0759 38.4095 24.9651 38.4095 21.6584C38.4095 11.0872 29.8399 2.51758 19.2687 2.51758C8.69754 2.51758 0.12793 11.0872 0.12793 21.6584C0.12793 24.9652 0.966602 28.076 2.44262 30.7901L36.0948 30.79Z" fill="#49B1F7"/>
<path id="Vector_2" d="M16.4842 28.2917C18.2421 29.1875 20.3231 29.1733 22.0532 28.2917C23.2817 27.6657 24.6971 26.8207 25.9656 25.4814C25.4546 25.3108 24.9324 25.163 24.3949 25.039C23.6018 24.2459 23.4008 22.7422 23.3646 21.6902C22.9506 22.1723 22.5163 22.5756 22.1012 22.8978C21.2924 23.5259 20.2946 23.867 19.2667 23.867C18.2389 23.867 17.241 23.5259 16.4322 22.8978C16.0171 22.5755 15.5827 22.1722 15.1688 21.6902C15.1325 22.7422 14.9315 24.2459 14.1383 25.039C13.6021 25.1628 13.0809 25.3103 12.5708 25.4804C13.8396 26.8203 15.2554 27.6655 16.4842 28.2917Z" fill="#FFAA7B"/>
<path id="Vector_3" d="M15.1688 21.6902C15.1325 22.7422 14.9315 24.2459 14.1383 25.039C13.6021 25.1628 13.0809 25.3103 12.5708 25.4804C13.3247 26.2766 14.1303 26.8971 14.918 27.4017C15.828 26.6948 16.983 26.7032 16.983 26.7032C18.9443 26.7032 19.2667 23.867 19.2667 23.867C18.2389 23.867 17.241 23.5259 16.4322 22.8978C16.0171 22.5756 15.5827 22.1723 15.1688 21.6902Z" fill="#FC9460"/>
<path id="Vector_4" d="M20.6201 27.4814L19.6714 28.9746L21.3924 28.5127L20.6201 27.4814Z" fill="#D3DCFB"/>
<path id="Vector_5" d="M17.913 27.4814L18.8616 28.9746L17.1406 28.5127L17.913 27.4814Z" fill="#D3DCFB"/>
<path id="Vector_6" d="M33.4021 28.1558C33.134 28.0293 32.8468 27.9209 32.5414 27.8307L27.5149 26.0801C26.9172 25.8162 26.3089 25.5852 25.6831 25.3884C24.4629 26.7065 23.0891 27.5273 21.9008 28.1328C20.2654 28.9662 18.2982 28.9796 16.6366 28.1328C16.1201 27.8696 15.5686 27.5656 15.0099 27.1979C14.3804 27.6205 13.8222 28.3344 13.7335 29.5434C13.5019 29.6012 12.8505 29.7874 12.191 30.1905C11.1122 30.8499 10.542 31.7757 10.542 32.8676V38.6982C13.1589 40.0411 16.1252 40.7991 19.2687 40.7991C23.4711 40.7991 27.3572 39.4447 30.5143 37.1487C30.5143 35.6941 30.5143 34.4126 30.5143 33.5766C30.5143 31.0876 32.7407 29.3907 34.0628 28.5236C33.8557 28.3891 33.6358 28.266 33.4021 28.1558Z" fill="#88CE65"/>
<path id="Vector_7" d="M10.6593 38.7571C10.6593 37.6562 10.6593 34.8812 10.6593 32.8676C10.6593 30.3022 13.845 29.6375 13.845 29.6375C13.9115 28.3923 14.4787 27.6769 15.1127 27.2642C14.353 26.7739 13.5768 26.1688 12.8543 25.3884C12.2284 25.5852 11.6202 25.8162 11.0225 26.0801L5.99609 27.8307C5.6907 27.9209 5.40344 28.0293 5.13531 28.1558C4.90164 28.266 4.68172 28.3891 4.47461 28.5236C5.79664 29.3907 8.02305 31.0876 8.02305 33.5766V37.1487C8.85375 37.7527 9.73531 38.2909 10.6593 38.7571Z" fill="#6FAF46"/>
<path id="Vector_8" d="M22.974 27.466C22.6062 27.685 22.2457 27.879 21.9009 28.0547C20.2655 28.8882 18.2984 28.9015 16.6367 28.0547C16.2906 27.8783 15.9287 27.6835 15.5596 27.4636V29.4843C15.6669 29.5407 15.7735 29.596 15.8787 29.6496C18.019 30.7403 20.5527 30.723 22.6591 29.6496C22.7629 29.5967 22.8681 29.5421 22.974 29.4865V27.466Z" fill="#B4D667"/>
<path id="Vector_9" d="M23.8143 23.2263C23.7244 23.1767 23.6127 23.2286 23.5921 23.3293C23.4584 23.984 22.8784 26.0464 20.7246 27.2705C20.5125 27.391 20.4617 27.6741 20.6222 27.8578L22.7986 30.3505C23.2505 30.871 24.0824 30.7774 24.4086 30.1701C24.96 29.1436 25.7282 27.5811 26.2968 25.9012C26.3986 25.6005 26.3262 25.268 26.1116 25.0338C25.4497 24.3116 24.674 23.7008 23.8143 23.2263Z" fill="#DEEEFF"/>
<path id="Vector_10" d="M17.8089 27.2702C17.4467 27.0644 17.1299 26.8344 16.8512 26.5918C16.2741 26.6312 13.9897 26.947 13.7446 29.4396C13.8785 29.7045 14.0069 29.9502 14.1249 30.1699C14.4511 30.7771 15.2831 30.8707 15.7349 30.3503L17.9113 27.8576C18.0718 27.6738 18.021 27.3908 17.8089 27.2702Z" fill="#DEEEFF"/>
<path id="Vector_11" d="M14.9415 23.3292C14.9209 23.2286 14.8091 23.1767 14.7193 23.2264C13.8596 23.7009 13.084 24.3117 12.422 25.0338C12.2075 25.2678 12.1351 25.6004 12.2369 25.9012C12.7146 27.3126 13.3328 28.6398 13.8454 29.6372C14.0036 26.6807 16.9833 26.7033 16.9833 26.7033C15.5001 25.4878 15.0561 23.8909 14.9415 23.3292Z" fill="#D3DCFB"/>
<g id="Group_2">
<path id="Vector_12" d="M12.1512 13.1019H26.4693C26.4946 12.0702 26.6667 9.33961 27.7449 7.39445C27.8948 7.12391 27.9216 6.8025 27.8171 6.51133C27.4259 5.42055 26.2573 2.87055 23.7087 2.19039C23.5729 2.15414 23.5371 1.97852 23.6475 1.89172L24.0295 1.59164C24.2026 1.45555 24.1361 1.17914 23.9199 1.1375C22.0396 0.774844 15.7946 -0.0929684 13.8548 3.89586C13.739 4.13391 13.5208 4.30531 13.2646 4.37164C12.7001 4.51773 11.6849 4.95805 11.0232 6.2775C10.8937 6.53555 10.8717 6.83484 10.9644 7.1082C11.286 8.05594 12.0695 10.6008 12.1512 13.1019Z" fill="#945230"/>
<path id="Vector_13" d="M18.5578 6.79694C16.271 3.31187 20.2711 0.800537 20.2711 0.800537C17.8452 0.831943 15.0428 1.45319 13.8548 3.89593C13.739 4.13397 13.5208 4.30538 13.2646 4.37171C12.7001 4.5178 11.6849 4.95812 11.0232 6.27757C10.8937 6.53561 10.8717 6.83491 10.9644 7.10827C11.286 8.05601 12.0695 10.6008 12.1512 13.1019H15.484C17.5934 11.3933 19.9168 8.86788 18.5578 6.79694Z" fill="#753616"/>
<path id="Vector_14" d="M27.0249 12.6845C26.7044 12.3908 25.9877 12.5397 25.7116 12.7195C25.7721 13.0962 25.7755 13.4815 25.7233 13.8619L25.3975 16.2348C25.3975 16.426 25.3915 16.6137 25.3804 16.798C26.1748 17.0376 26.6476 16.3244 26.714 15.835C26.7426 15.6243 26.7894 15.4166 26.8544 15.214C27.0658 14.5541 27.8281 13.4205 27.0249 12.6845Z" fill="#FFAA7B"/>
<path id="Vector_15" d="M11.516 12.6845C11.8365 12.3908 12.5532 12.5397 12.8292 12.7195C12.7688 13.0962 12.7653 13.4815 12.8176 13.8619L13.1434 16.2348C13.1434 16.426 13.1494 16.6137 13.1605 16.798C12.366 17.0376 11.8933 16.3244 11.8268 15.835C11.7982 15.6243 11.7514 15.4166 11.6865 15.214C11.4752 14.5541 10.7128 13.4205 11.516 12.6845Z" fill="#FC9460"/>
<path id="Vector_16" d="M25.5936 11.9864C25.5202 11.7951 25.4278 11.6014 25.3113 11.4186C25.1141 11.1092 25.0273 10.743 25.0537 10.378C25.1298 9.32816 25.089 7.2748 23.7108 6.65465C22.5399 6.12777 21.1036 6.43285 20.1876 6.73738C19.6148 6.92793 18.9958 6.93441 18.4195 6.75793C17.3759 7.55886 17.3514 9.36222 17.4219 10.3225C17.4489 10.6895 17.3586 11.0566 17.1602 11.3678C17.0459 11.5472 16.9544 11.7371 16.8813 11.925C16.6441 12.5345 16.5748 13.1956 16.6637 13.8429L16.9939 16.2477C16.9939 19.7049 18.8394 22.0547 20.4091 23.2738C20.6408 23.4537 20.8887 23.6085 21.1476 23.7406C21.4868 23.5902 21.8086 23.3991 22.1048 23.169C23.6541 21.966 25.4755 19.6468 25.4755 16.2347L25.8012 13.8619C25.8882 13.2293 25.8223 12.5833 25.5936 11.9864Z" fill="#FFC7AB"/>
<g id="Group_3">
<path id="Vector_17" d="M20.4207 23.169C18.8714 21.966 17.0501 19.6468 17.0501 16.2347L16.7242 13.8614C16.6365 13.2226 16.7048 12.5701 16.939 11.9686C17.0112 11.7831 17.1014 11.5957 17.2143 11.4187C17.4101 11.1115 17.4992 10.7493 17.4726 10.387C17.4008 9.40918 17.4287 7.54566 18.5581 6.79676C18.4894 6.77941 18.4212 6.75988 18.3537 6.73738C17.4377 6.43285 16.0014 6.12777 14.8305 6.65465C13.4483 7.27652 13.4113 9.33988 13.4883 10.387C13.5149 10.7493 13.4257 11.1115 13.2299 11.4187C13.1171 11.5957 13.0268 11.7831 12.9546 11.9686C12.7205 12.5701 12.6522 13.2226 12.7399 13.8614L13.0658 16.2347C13.0658 19.6468 14.8872 21.9659 16.4364 23.169C17.2451 23.797 18.243 24.1381 19.2708 24.1381C19.965 24.1381 20.6452 23.9819 21.263 23.6875C20.966 23.5461 20.6833 23.3729 20.4207 23.169Z" fill="#FFAA7B"/>
</g>
</g>
<path id="Vector_18" d="M33.9825 28.4741C32.6717 29.3254 30.3584 31.04 30.3584 33.5767V37.2612C32.7284 35.5737 34.6975 33.3597 36.0951 30.79C35.6048 29.8812 34.9239 29.0628 33.9825 28.4741Z" fill="#B4D667"/>
<path id="Vector_19" d="M4.55545 28.4741C3.61412 29.0628 2.93311 29.8813 2.44287 30.7901C3.84045 33.3598 5.80959 35.5737 8.17959 37.2612C8.17959 35.7601 8.17959 34.4342 8.17959 33.5767C8.17959 31.04 5.86631 29.3254 4.55545 28.4741Z" fill="#88CE65"/>
<path id="Vector_20" d="M32.3539 7.69019C30.5367 9.03347 28.2757 11.298 29.2342 14.1353C30.7186 18.5293 23.9998 21.3003 31.4998 24.4851C34.4986 25.7585 36.241 27.0871 37.2533 28.2235C38.0011 26.1757 38.4098 23.9649 38.4098 21.6583C38.4097 16.1481 36.0804 11.1825 32.3539 7.69019Z" fill="#73C3F9"/>
<path id="Vector_21" d="M6.18387 7.69019C8.00106 9.03347 10.2621 11.298 9.30356 14.1353C7.81918 18.5293 14.5379 21.3003 7.03793 24.4851C4.03918 25.7585 2.29676 27.0871 1.28441 28.2235C0.536602 26.1757 0.12793 23.9649 0.12793 21.6583C0.128008 16.1481 2.4573 11.1825 6.18387 7.69019Z" fill="#73C3F9"/>
<path id="Vector_22" d="M23.657 18.9691C23.4758 17.8888 22.6964 16.8071 21.6558 16.5711L20.0652 16.1038C19.7887 16.0226 19.5119 16.1644 19.4005 16.4053C19.3802 16.4493 19.3187 16.4493 19.2984 16.4053C19.1871 16.1644 18.9102 16.0226 18.6337 16.1038L17.0432 16.5711C16.9897 16.5832 16.937 16.5982 16.885 16.6147C16.7316 16.9044 16.4908 17.4826 16.6554 18.0238C16.7479 18.3282 16.9557 18.5726 17.2707 18.755C17.5497 18.6083 17.8497 18.4969 18.1651 18.4273L18.4492 18.3645C18.8633 18.2731 19.1835 17.8689 19.3009 17.4382C19.3144 17.3887 19.3847 17.3887 19.3982 17.4382C19.5156 17.8689 19.8358 18.2731 20.2498 18.3645L20.534 18.4273C21.3505 18.6075 22.066 19.0644 22.5721 19.7031C22.4673 20.1689 22.1388 20.8767 21.1207 21.2365C20.4376 21.4778 19.6921 21.0482 19.6046 20.3371C19.6035 20.3279 19.6024 20.3187 19.6013 20.3093C19.5869 20.1767 19.4759 20.0748 19.3408 20.0748C19.2057 20.0748 19.0947 20.1767 19.0803 20.3093C19.0793 20.3187 19.0782 20.328 19.0771 20.3371C19.0281 20.735 18.773 21.0445 18.4382 21.198C18.3651 21.5728 18.2719 22.4309 18.7116 23.2427C18.9369 23.6586 19.2702 24.0008 19.7062 24.2673C20.139 24.2162 20.5648 24.0894 20.963 23.8866C22.5548 23.0762 24.671 21.6682 25.3479 18.0462C25.4036 17.7484 25.4319 17.4455 25.4319 17.1426C25.1742 17.7783 24.6386 18.5433 23.657 18.9691Z" fill="#945230"/>
<path id="Vector_23" d="M19.8923 24.24C18.1867 23.2975 18.4813 21.5278 18.5747 21.1228C18.2871 21.305 17.9163 21.3618 17.5613 21.2364C16.6214 20.9043 16.2171 20.2753 16.0433 19.8142C16.3942 19.3342 16.8593 18.9478 17.397 18.6914C16.2554 18.095 16.8583 16.8885 17.0439 16.571L17.0435 16.5711C15.9824 16.8117 15.1923 17.9318 15.0317 19.0331C13.946 18.6236 13.3809 17.8115 13.1099 17.1425V17.1428C13.1099 17.4453 13.1381 17.7478 13.1936 18.0452C13.8692 21.6665 15.9753 23.0743 17.5672 23.8857C18.2921 24.2551 19.1086 24.3728 19.8923 24.24Z" fill="#753616"/>
</g>
</svg>
