<svg width="21" height="22" viewBox="0 0 21 22" fill="none" xmlns="http://www.w3.org/2000/svg">
<g id="notification">
<g id="vuesax/outline/notification">
<g id="notification_2">
<path id="Vector" d="M10.4038 18.573C8.48523 18.573 6.5667 18.2683 4.74698 17.659C4.05533 17.4202 3.52835 16.9344 3.2978 16.3004C3.05901 15.6664 3.14135 14.9665 3.52012 14.3407L4.46703 12.768C4.66464 12.4386 4.84579 11.7799 4.84579 11.3929V9.01329C4.84579 5.95023 7.3407 3.45532 10.4038 3.45532C13.4668 3.45532 15.9617 5.95023 15.9617 9.01329V11.3929C15.9617 11.7717 16.1429 12.4386 16.3405 12.7762L17.2792 14.3407C17.6332 14.9335 17.6991 15.6499 17.4603 16.3004C17.2215 16.9509 16.7028 17.4449 16.0523 17.659C14.2408 18.2683 12.3223 18.573 10.4038 18.573ZM10.4038 4.69043C8.02413 4.69043 6.0809 6.62542 6.0809 9.01329V11.3929C6.0809 11.994 5.83388 12.8833 5.52922 13.402L4.5823 14.9747C4.40116 15.2794 4.35175 15.6005 4.45879 15.8722C4.5576 16.1522 4.80462 16.3663 5.14222 16.4815C8.58404 17.6343 12.2317 17.6343 15.6735 16.4815C15.97 16.3827 16.2005 16.1604 16.3075 15.864C16.4146 15.5676 16.3899 15.2464 16.2252 14.9747L15.2783 13.402C14.9654 12.8668 14.7266 11.9858 14.7266 11.3847V9.01329C14.7266 6.62542 12.7916 4.69043 10.4038 4.69043Z" fill="#EBEBEB"/>
<path id="Vector_2" d="M11.9353 4.91273C11.8776 4.91273 11.82 4.90449 11.7623 4.88802C11.5236 4.82215 11.293 4.77275 11.0707 4.73981C10.3708 4.64924 9.69561 4.69864 9.06159 4.88802C8.83103 4.96213 8.58401 4.88802 8.42757 4.71511C8.27112 4.5422 8.22172 4.29517 8.31229 4.07286C8.64989 3.20828 9.47329 2.64014 10.412 2.64014C11.3506 2.64014 12.174 3.20005 12.5116 4.07286C12.594 4.29517 12.5528 4.5422 12.3964 4.71511C12.2729 4.84685 12.0999 4.91273 11.9353 4.91273Z" fill="#EBEBEB"/>
<path id="Vector_3" d="M10.4038 20.4503C9.5886 20.4503 8.79813 20.1209 8.22175 19.5446C7.64537 18.9682 7.31601 18.1777 7.31601 17.3625H8.55111C8.55111 17.8484 8.74873 18.3259 9.09456 18.6718C9.44039 19.0176 9.91796 19.2152 10.4038 19.2152C11.4248 19.2152 12.2564 18.3836 12.2564 17.3625H13.4915C13.4915 19.067 12.1082 20.4503 10.4038 20.4503Z" fill="#EBEBEB"/>
</g>
</g>
<circle id="Ellipse 3" cx="15.3277" cy="3.97403" r="3.29361" fill="#E20404"/>
</g>
</svg>
