<svg width="20" height="20" viewBox="0 0 20 20" fill="none" xmlns="http://www.w3.org/2000/svg">
<g id="vuesax/outline/profile-2user">
<g id="profile-2user">
<path id="Vector" d="M7.62843 9.16659C7.60435 9.16659 7.58829 9.16659 7.56421 9.16659C7.52406 9.15855 7.46787 9.15855 7.4197 9.16659C5.0915 9.09426 3.33331 7.26205 3.33331 5.00394C3.33331 2.70564 5.2039 0.833252 7.49998 0.833252C9.79606 0.833252 11.6666 2.70564 11.6666 5.00394C11.6586 7.26205 9.8924 9.09426 7.65252 9.16659C7.64449 9.16659 7.63646 9.16659 7.62843 9.16659ZM7.49998 2.03865C5.87024 2.03865 4.53755 3.37263 4.53755 5.00394C4.53755 6.61114 5.78996 7.90493 7.38758 7.96119C7.43575 7.95315 7.54012 7.95315 7.64449 7.96119C9.21803 7.88886 10.4544 6.59507 10.4624 5.00394C10.4624 3.37263 9.12972 2.03865 7.49998 2.03865Z" fill="#EBEBEB"/>
<path id="Vector_2" d="M14.1235 10C14.0989 10 14.0743 10 14.0497 9.99118C13.7137 10.0265 13.3695 9.77059 13.3367 9.40882C13.304 9.04706 13.5088 8.72059 13.8449 8.67647C13.9432 8.66765 14.0497 8.66765 14.1399 8.66765C15.3364 8.59706 16.2707 7.53824 16.2707 6.24118C16.2707 4.9 15.2626 3.81471 14.017 3.81471C13.6809 3.82353 13.4023 3.52353 13.4023 3.16176C13.4023 2.8 13.6809 2.5 14.017 2.5C15.9347 2.5 17.5 4.18529 17.5 6.25C17.5 8.27941 16.0248 9.92059 14.1481 10C14.1399 10 14.1317 10 14.1235 10Z" fill="#EBEBEB"/>
<path id="Vector_3" d="M7.91669 18.3333C6.29846 18.3333 4.67197 17.9213 3.44179 17.0972C2.29416 16.3391 1.66669 15.3008 1.66669 14.1718C1.66669 13.0429 2.29416 11.9963 3.44179 11.2299C5.91867 9.59003 9.93122 9.59003 12.3916 11.2299C13.531 11.9881 14.1667 13.0264 14.1667 14.1553C14.1667 15.2843 13.5392 16.3309 12.3916 17.0972C11.1531 17.9213 9.53492 18.3333 7.91669 18.3333ZM4.12706 12.2682C3.33445 12.7956 2.90513 13.4714 2.90513 14.1801C2.90513 14.8805 3.34271 15.5562 4.12706 16.0754C6.18287 17.4516 9.65051 17.4516 11.7063 16.0754C12.4989 15.548 12.9282 14.8723 12.9282 14.1636C12.9282 13.4631 12.4907 12.7874 11.7063 12.2682C9.65051 10.9003 6.18287 10.9003 4.12706 12.2682Z" fill="#EBEBEB"/>
<path id="Vector_4" d="M15.6693 17.4999C15.3546 17.4999 15.0759 17.2868 15.013 16.9671C14.9411 16.6031 15.1748 16.2568 15.5345 16.1769C16.1009 16.0614 16.6223 15.8394 17.0269 15.5286C17.5394 15.1468 17.8181 14.6673 17.8181 14.1612C17.8181 13.655 17.5394 13.1755 17.0359 12.8026C16.6403 12.5007 16.1458 12.2876 15.5614 12.1544C15.2018 12.0745 14.968 11.7193 15.049 11.3552C15.1299 11 15.4895 10.7692 15.8581 10.8491C16.6313 11.0178 17.3056 11.3197 17.854 11.737C18.6902 12.3586 19.1667 13.2377 19.1667 14.1612C19.1667 15.0847 18.6812 15.9637 17.845 16.5942C17.2876 17.0204 16.5864 17.3312 15.8132 17.4822C15.7592 17.4999 15.7143 17.4999 15.6693 17.4999Z" fill="#EBEBEB"/>
</g>
</g>
</svg>
