<svg width="20" height="20" viewBox="0 0 20 20" fill="none" xmlns="http://www.w3.org/2000/svg">
<g id="vuesax/outline/receipt-2">
<g id="receipt-2">
<path id="Vector" d="M10 18.9584C9.35002 18.9584 8.71669 18.6251 8.28335 18.0417L7.44169 16.9167C7.26669 16.6834 7.03335 16.5501 6.78335 16.5334C6.53335 16.5251 6.28335 16.6334 6.08335 16.8417L5.60835 16.4167L6.06669 16.8417C4.86669 18.1251 3.94169 18.0251 3.50002 17.8501C3.05002 17.6751 2.29169 17.1001 2.29169 15.2501V5.86675C2.29169 2.16675 3.35835 1.04175 6.85002 1.04175H13.15C16.6417 1.04175 17.7084 2.16675 17.7084 5.86675V15.2501C17.7084 17.0917 16.95 17.6667 16.5 17.8501C16.0584 18.0251 15.1417 18.1251 13.9334 16.8417C13.7334 16.6251 13.4834 16.5084 13.225 16.5334C12.975 16.5501 12.7334 16.6834 12.5584 16.9167L11.7167 18.0417C11.2834 18.6251 10.65 18.9584 10 18.9584ZM6.73335 15.2751C6.76669 15.2751 6.80835 15.2751 6.84169 15.2751C7.45835 15.3084 8.04169 15.6334 8.43335 16.1584L9.27502 17.2834C9.68335 17.8251 10.3084 17.8251 10.7167 17.2834L11.5584 16.1584C11.9584 15.6334 12.5334 15.3084 13.1584 15.2751C13.775 15.2417 14.3917 15.5001 14.8417 15.9834C15.475 16.6584 15.8834 16.7417 16.0334 16.6834C16.2334 16.6001 16.45 16.1167 16.45 15.2501V5.86675C16.45 2.85841 15.925 2.29175 13.1417 2.29175H6.85002C4.06669 2.29175 3.54169 2.85841 3.54169 5.86675V15.2501C3.54169 16.1251 3.75835 16.6084 3.95835 16.6834C4.10002 16.7417 4.51669 16.6584 5.15002 15.9834C5.60002 15.5251 6.15835 15.2751 6.73335 15.2751Z" fill="#EBEBEB"/>
<path id="Vector_2" d="M13.525 9.79175H8.94165C8.59998 9.79175 8.31665 9.50841 8.31665 9.16675C8.31665 8.82508 8.59998 8.54175 8.94165 8.54175H13.525C13.8667 8.54175 14.15 8.82508 14.15 9.16675C14.15 9.50841 13.8667 9.79175 13.525 9.79175Z" fill="#EBEBEB"/>
<path id="Vector_3" d="M13.525 6.45825H8.94165C8.59998 6.45825 8.31665 6.17492 8.31665 5.83325C8.31665 5.49159 8.59998 5.20825 8.94165 5.20825H13.525C13.8667 5.20825 14.15 5.49159 14.15 5.83325C14.15 6.17492 13.8667 6.45825 13.525 6.45825Z" fill="#EBEBEB"/>
<path id="Vector_4" d="M6.4833 6.66667C6.02496 6.66667 5.64996 6.29167 5.64996 5.83333C5.64996 5.375 6.02496 5 6.4833 5C6.94163 5 7.31663 5.375 7.31663 5.83333C7.31663 6.29167 6.94163 6.66667 6.4833 6.66667Z" fill="#EBEBEB"/>
<path id="Vector_5" d="M6.4833 9.99992C6.02496 9.99992 5.64996 9.62492 5.64996 9.16659C5.64996 8.70825 6.02496 8.33325 6.4833 8.33325C6.94163 8.33325 7.31663 8.70825 7.31663 9.16659C7.31663 9.62492 6.94163 9.99992 6.4833 9.99992Z" fill="#EBEBEB"/>
</g>
</g>
</svg>
