<svg width="51" height="27" viewBox="0 0 51 27" fill="none" xmlns="http://www.w3.org/2000/svg">
<path id="Vector 32" d="M17.2558 17.0931L18.1673 18.0874C17.6434 18.5675 16.837 18.5589 16.3235 18.0678L17.2558 17.0931ZM33.4419 2.25584L32.5304 1.26154C32.8142 1.00137 33.1957 0.874887 33.5788 0.913971C33.9618 0.953054 34.3099 1.15397 34.5353 1.46611L33.4419 2.25584ZM50.9767 26.5349L36.7663 20.1597L49.3926 11.0407L50.9767 26.5349ZM2.67653 1.28111L18.1882 16.1183L16.3235 18.0678L0.81184 3.23057L2.67653 1.28111ZM16.3444 16.0988L32.5304 1.26154L34.3533 3.25014L18.1673 18.0874L16.3444 16.0988ZM34.5353 1.46611L44.9626 15.9039L42.7757 17.4834L32.3484 3.04557L34.5353 1.46611Z" fill="#F81616"/>
</svg>
