<svg width="12" height="12" viewBox="0 0 12 12" fill="none" xmlns="http://www.w3.org/2000/svg">
<g id="vuesax/outline/trash">
<g id="trash">
<path id="Vector" d="M10.0458 3.19057C10.0364 3.19057 10.0224 3.19057 10.0084 3.19057C7.5347 2.94274 5.06573 2.84921 2.62014 3.09705L1.66622 3.19057C1.46982 3.20927 1.29681 3.06899 1.2781 2.87259C1.2594 2.6762 1.39968 2.50786 1.5914 2.48916L2.54532 2.39563C5.033 2.14313 7.55341 2.24132 10.0785 2.48916C10.2702 2.50786 10.4105 2.68087 10.3918 2.87259C10.3778 3.05496 10.2234 3.19057 10.0458 3.19057Z" fill="#F50404"/>
<path id="Vector_2" d="M4.20066 2.71814C4.18196 2.71814 4.16325 2.71814 4.13987 2.71346C3.95283 2.68073 3.8219 2.49836 3.85463 2.31132L3.95751 1.69875C4.03232 1.24985 4.1352 0.62793 5.22472 0.62793H6.44986C7.54406 0.62793 7.64694 1.27323 7.71708 1.70343L7.81995 2.31132C7.85268 2.50304 7.72175 2.68541 7.53471 2.71346C7.34299 2.7462 7.16062 2.61527 7.13257 2.42822L7.02969 1.82033C6.96423 1.41351 6.9502 1.33402 6.45454 1.33402H5.2294C4.73374 1.33402 4.72438 1.39948 4.65424 1.81565L4.54669 2.42355C4.51864 2.59656 4.369 2.71814 4.20066 2.71814Z" fill="#F50404"/>
<path id="Vector_3" d="M7.33829 10.6816H4.33624C2.70429 10.6816 2.63883 9.77911 2.58739 9.04964L2.28344 4.34082C2.26942 4.1491 2.41905 3.98076 2.61077 3.96674C2.80716 3.95738 2.97083 4.10234 2.98486 4.29406L3.2888 9.00288C3.34024 9.71364 3.35894 9.98018 4.33624 9.98018H7.33829C8.32027 9.98018 8.33897 9.71364 8.38573 9.00288L8.68968 4.29406C8.70371 4.10234 8.87205 3.95738 9.06377 3.96674C9.25548 3.98076 9.40512 4.14443 9.39109 4.34082L9.08715 9.04964C9.03571 9.77911 8.97024 10.6816 7.33829 10.6816Z" fill="#F50404"/>
<path id="Vector_4" d="M6.61353 8.10962H5.05639C4.86468 8.10962 4.70569 7.95063 4.70569 7.75891C4.70569 7.56719 4.86468 7.4082 5.05639 7.4082H6.61353C6.80525 7.4082 6.96424 7.56719 6.96424 7.75891C6.96424 7.95063 6.80525 8.10962 6.61353 8.10962Z" fill="#F50404"/>
<path id="Vector_5" d="M7.00631 6.2395H4.66827C4.47655 6.2395 4.31757 6.08051 4.31757 5.88879C4.31757 5.69707 4.47655 5.53809 4.66827 5.53809H7.00631C7.19803 5.53809 7.35702 5.69707 7.35702 5.88879C7.35702 6.08051 7.19803 6.2395 7.00631 6.2395Z" fill="#F50404"/>
</g>
</g>
</svg>
