<svg width="4" height="13" viewBox="0 0 4 13" fill="none" xmlns="http://www.w3.org/2000/svg">
<path id="Vector" d="M2.37805 2.98363C2.6555 2.98363 2.92672 2.90136 3.15741 2.74721C3.38811 2.59307 3.56791 2.37398 3.67409 2.11764C3.78026 1.86131 3.80804 1.57925 3.75392 1.30713C3.69979 1.03501 3.56618 0.785046 3.36999 0.588857C3.1738 0.392668 2.92384 0.259062 2.65172 0.204934C2.3796 0.150806 2.09754 0.178586 1.84121 0.284763C1.58488 0.390939 1.36578 0.570743 1.21164 0.801436C1.05749 1.03213 0.97522 1.30335 0.97522 1.5808C0.97522 1.95286 1.12302 2.30967 1.3861 2.57275C1.64918 2.83583 2.00599 2.98363 2.37805 2.98363ZM2.37805 9.99776C2.10059 9.99776 1.82937 10.08 1.59868 10.2342C1.36798 10.3883 1.18818 10.6074 1.082 10.8637C0.975828 11.1201 0.948047 11.4021 1.00218 11.6743C1.0563 11.9464 1.18991 12.1963 1.3861 12.3925C1.58229 12.5887 1.83225 12.7223 2.10437 12.7765C2.37649 12.8306 2.65855 12.8028 2.91488 12.6966C3.17122 12.5904 3.39031 12.4106 3.54445 12.1799C3.6986 11.9493 3.78087 11.678 3.78087 11.4006C3.78087 11.0285 3.63307 10.6717 3.36999 10.4086C3.10691 10.1456 2.7501 9.99776 2.37805 9.99776ZM2.37805 5.08787C2.10059 5.08787 1.82937 5.17014 1.59868 5.32429C1.36798 5.47843 1.18818 5.69752 1.082 5.95385C0.975828 6.21019 0.948047 6.49225 1.00218 6.76437C1.0563 7.03649 1.18991 7.28645 1.3861 7.48264C1.58229 7.67883 1.83225 7.81243 2.10437 7.86656C2.37649 7.92069 2.65855 7.89291 2.91488 7.78673C3.17122 7.68056 3.39031 7.50075 3.54445 7.27006C3.6986 7.03937 3.78087 6.76814 3.78087 6.49069C3.78087 6.11864 3.63307 5.76183 3.36999 5.49875C3.10691 5.23566 2.7501 5.08787 2.37805 5.08787Z" fill="#000D16"/>
</svg>
