<svg width="14" height="5" viewBox="0 0 14 5" fill="none" xmlns="http://www.w3.org/2000/svg">
<path id="Vector" d="M10.6279 2.55815C10.6279 2.11406 10.8043 1.68817 11.1183 1.37415C11.4323 1.06014 11.8582 0.883728 12.3023 0.883728C12.7464 0.883728 13.1723 1.06014 13.4863 1.37415C13.8003 1.68817 13.9767 2.11406 13.9767 2.55815C13.9767 3.00223 13.8003 3.42812 13.4863 3.74214C13.1723 4.05615 12.7464 4.23257 12.3023 4.23257C11.8582 4.23257 11.4323 4.05615 11.1183 3.74214C10.8043 3.42812 10.6279 3.00223 10.6279 2.55815ZM5.60465 2.55815C5.60465 2.11406 5.78106 1.68817 6.09507 1.37415C6.40909 1.06014 6.83498 0.883728 7.27906 0.883728C7.72315 0.883728 8.14904 1.06014 8.46306 1.37415C8.77707 1.68817 8.95348 2.11406 8.95348 2.55815C8.95348 3.00223 8.77707 3.42812 8.46306 3.74214C8.14904 4.05615 7.72315 4.23257 7.27906 4.23257C6.83498 4.23257 6.40909 4.05615 6.09507 3.74214C5.78106 3.42812 5.60465 3.00223 5.60465 2.55815ZM0.58139 2.55815C0.58139 2.11406 0.757802 1.68817 1.07182 1.37415C1.38583 1.06014 1.81173 0.883728 2.25581 0.883728C2.69989 0.883728 3.12579 1.06014 3.4398 1.37415C3.75382 1.68817 3.93023 2.11406 3.93023 2.55815C3.93023 3.00223 3.75382 3.42812 3.4398 3.74214C3.12579 4.05615 2.69989 4.23257 2.25581 4.23257C1.81173 4.23257 1.38583 4.05615 1.07182 3.74214C0.757802 3.42812 0.58139 3.00223 0.58139 2.55815Z" fill="#A6A6A6"/>
</svg>
